HIERARCHY
ROOT hip
{
	OFFSET 0.000000 0.000000 0.000000 
	CHANNELS 6 Xposition Yposition Zposition Xrotation Zrotation Yrotation
	JOINT abdomen
	{
		OFFSET 0.000000 3.402643 0.000000 
		CHANNELS 3 Xrotation Zrotation Yrotation
		JOINT chest
		{
			OFFSET 0.000000 8.438565 -0.680529 
			CHANNELS 3 Xrotation Zrotation Yrotation
			JOINT neck
			{
				OFFSET 0.000000 10.207942 -0.272212 
				CHANNELS 3 Xrotation Zrotation Yrotation
				JOINT head
				{
					OFFSET 0.000000 3.130431 0.000000 
					CHANNELS 3 Xrotation Zrotation Yrotation
					End Site
					{
						OFFSET 0.000000 3.130435 0.000000 
					}
				}
			}
			JOINT lCollar
			{
				OFFSET 3.470700 6.669187 -0.816635 
				CHANNELS 3 Yrotation Zrotation Xrotation
				JOINT lShldr
				{
					OFFSET 3.198488 0.000000 0.000000 
					CHANNELS 3 Zrotation Yrotation Xrotation
					JOINT lForeArm
					{
						OFFSET 10.139888 0.000000 0.000000 
						CHANNELS 3 Yrotation Zrotation Xrotation
						JOINT lHand
						{
							OFFSET 8.370511 0.000000 0.000000 
							CHANNELS 3 Zrotation Yrotation Xrotation
							End Site
							{
								OFFSET 4.083176 0.000000 0.000000 
							}
						}
					}
				}
			}
			JOINT rCollar
			{
				OFFSET -3.470700 6.669187 -0.816635 
				CHANNELS 3 Yrotation Zrotation Xrotation
				JOINT rShldr
				{
					OFFSET -3.198488 0.000000 0.000000 
					CHANNELS 3 Zrotation Yrotation Xrotation
					JOINT rForeArm
					{
						OFFSET -10.139888 0.000000 0.000000 
						CHANNELS 3 Yrotation Zrotation Xrotation
						JOINT rHand
						{
							OFFSET -8.370511 0.000000 0.000000 
							CHANNELS 3 Zrotation Yrotation Xrotation
							End Site
							{
								OFFSET -4.083176 0.000000 0.000000 
							}
						}
					}
				}
			}
		}
	}
	JOINT lThigh
	{
		OFFSET 5.308129 -1.633274 1.361059 
		CHANNELS 3 Xrotation Zrotation Yrotation
		JOINT lShin
		{
			OFFSET -2.041588 -20.007561 0.000000 
			CHANNELS 3 Xrotation Zrotation Yrotation
			JOINT lFoot
			{
				OFFSET 0.000000 -19.190928 -1.224953 
				CHANNELS 3 Xrotation Yrotation Zrotation
				End Site
				{
					OFFSET 0.000000 -2.449906 4.627600 
				}
			}
		}
	}
	JOINT rThigh
	{
		OFFSET -5.308129 -1.633274 1.361059 
		CHANNELS 3 Xrotation Zrotation Yrotation
		JOINT rShin
		{
			OFFSET 2.041588 -20.007561 0.000000 
			CHANNELS 3 Xrotation Zrotation Yrotation
			JOINT rFoot
			{
				OFFSET 0.000000 -19.190928 -1.224953 
				CHANNELS 3 Xrotation Yrotation Zrotation
				End Site
				{
					OFFSET 0.000000 -2.449906 4.627600 
				}
			}
		}
	}
}
MOTION
Frames: 10
Frame Time: 0.028571
-0.105618 44.166023 1.125756 0.084613 0.589164 0.004642 26.904287 3.834173 1.596266 6.870725 0.632626 -0.046305 -9.444568 3.209417 -2.040619 6.187378 1.106098 -0.072540 2.021920 -5.690310 -0.063351 -38.499348 -10.660044 19.754053 -58.874699 19.947769 4.259759 16.366550 -12.177945 -2.180058 -2.021920 5.690310 -0.063351 52.770882 12.226118 16.642891 39.665771 -21.180855 2.839777 -5.135673 0.642360 0.149384 -32.633595 19.192780 2.104684 75.776276 -21.810112 -27.235798 -33.629929 3.927271 16.556740 -32.991302 -12.642078 1.637771 81.820206 11.365211 17.246822 -34.957378 2.856848 -5.457669 
0.067928 44.809898 1.637663 0.184173 1.415102 0.010817 25.192760 4.664142 1.898844 6.983113 1.200762 -0.046305 -10.684258 4.042468 -2.215293 4.768061 1.025673 -0.031700 2.021920 -5.690310 -0.063351 -34.144951 -15.744910 20.891327 -67.421967 25.303894 7.351871 17.066114 -14.534883 -2.814465 -2.021920 5.690310 -0.063351 52.350311 14.171715 17.075453 42.893810 -21.266689 3.793230 -4.266169 1.137902 0.101084 -29.302919 19.193640 3.158817 74.250992 -25.376598 -24.679197 -35.023769 1.977564 14.099123 -27.782093 -14.320319 0.462047 76.597694 11.801496 16.132326 -37.100739 7.937565 -4.579301 
0.214113 45.412617 2.116847 0.296711 1.827810 0.015001 23.760965 5.370556 2.211411 7.101788 1.800674 -0.046305 -11.950020 4.963779 -2.401089 3.249864 0.939747 0.011939 2.021920 -5.690310 -0.063351 -30.614279 -19.989223 22.030497 -75.028099 29.997717 10.295314 17.802414 -16.911058 -3.533288 -2.021920 5.690310 -0.063351 51.393246 15.283801 17.228003 46.255100 -20.694042 4.692238 -2.845247 1.920193 0.114379 -26.232050 19.544928 4.173756 72.106033 -28.480305 -21.919970 -35.991230 -0.174069 11.595525 -23.548595 -15.849607 -0.520498 71.340065 12.504450 14.945083 -38.469955 12.466675 -3.883377 
0.263835 45.904484 2.507902 0.431421 1.016340 0.013001 23.307301 5.635340 2.511750 7.222880 2.412810 -0.046305 -13.125500 6.015660 -2.594300 1.648410 0.849377 0.057847 2.021920 -5.690310 -0.063351 -29.875000 -21.301201 23.027300 -78.981697 32.206600 12.435900 18.547300 -19.033600 -4.398040 -2.021920 5.690310 -0.063351 49.040401 13.889000 16.567499 49.557999 -18.330200 5.320430 -0.046440 3.413380 0.300444 -24.295401 20.843399 4.946050 68.483704 -29.870501 -18.944500 -35.625301 -2.618740 9.286310 -22.628201 -16.758600 -0.828367 66.664703 13.871700 13.705700 -37.468498 14.845800 -3.794550 
0.169367 46.979919 1.606936 0.625194 -1.469149 -0.004587 24.338114 5.234139 2.742801 7.342614 3.018075 -0.046305 -14.176337 7.191216 -2.791706 -0.018664 0.755654 0.105470 2.021920 -5.690310 -0.063351 -33.140530 -18.292500 23.694904 -77.442177 30.685146 13.297868 19.272451 -20.682951 -5.442458 -2.021920 5.690310 -0.063351 44.764484 8.905391 14.808666 52.577717 -13.513834 5.516758 4.539210 5.829763 0.709377 -24.070629 23.370363 5.322600 62.845959 -28.699820 -15.782937 -33.306667 -5.320776 7.367238 -26.541870 -16.737453 -0.146117 62.995171 16.134315 12.404734 -33.055946 13.986058 -4.600051 
-0.031503 48.296391 0.605864 1.025711 -4.634075 -0.068014 26.591572 4.317460 2.708153 7.457572 3.599186 -0.046305 -15.396111 8.286753 -2.992033 -1.725674 0.659797 0.154146 2.021920 -5.690310 -0.063351 -38.607212 -12.545726 23.676134 -72.051842 26.496861 13.119172 19.948858 -21.852787 -6.589154 -2.021920 5.690310 -0.063351 39.366138 1.729195 12.657254 54.956844 -7.469092 5.341472 9.650636 8.534236 1.146959 -24.948338 26.145315 5.351707 55.933273 -25.734291 -12.640467 -29.566708 -7.737367 5.855642 -33.544834 -16.122248 1.177493 59.979675 18.857101 10.912510 -26.416204 10.836503 -6.037433 
-0.279613 49.584026 -0.331221 1.808347 -7.122745 -0.212746 29.613794 3.129523 2.176557 7.564422 4.139311 -0.046305 -17.160381 9.049368 -3.194490 -3.444925 0.563061 0.203191 2.021920 -5.690310 -0.063351 -43.717110 -6.005006 22.571220 -65.323730 21.282471 12.316191 20.547337 -22.590076 -7.732952 -2.021920 5.690310 -0.063351 33.977974 -5.922414 11.066765 56.304798 -1.891495 4.910139 13.609257 10.679834 1.357892 -26.022350 27.872284 5.132020 48.805752 -22.143291 -9.766036 -25.224472 -9.198911 4.724251 -41.075882 -15.410543 2.627649 57.072571 21.438286 9.069294 -19.289263 6.855675 -7.706822 
-0.515795 50.623009 -1.095960 3.148480 -7.579470 -0.474247 32.950901 1.914550 0.916762 7.659830 4.621620 -0.046305 -19.844700 9.226160 -3.398290 -5.148720 0.466698 0.251916 2.021920 -5.690310 -0.063351 -45.912300 -0.410282 19.980400 -59.770901 16.682699 11.305300 21.038700 -22.941799 -8.768680 -2.021920 5.690310 -0.063351 29.732599 -12.373400 10.990700 56.230999 1.523440 4.338330 14.736500 11.419600 1.086880 -26.386499 27.255301 4.762190 42.523499 -19.096201 -7.408590 -21.099001 -9.035810 3.945790 -46.573799 -15.099900 3.689540 53.728199 23.276100 6.715350 -13.415100 3.502110 -9.208350 
-0.694820 51.246029 0.519073 5.182366 -5.140499 -0.862042 36.209007 0.873474 -1.171501 7.741260 5.033286 -0.046305 -23.710253 8.630103 -3.601176 -6.809464 0.371965 0.299565 2.021920 -5.690310 -0.063351 -43.351109 -14.754561 15.683236 -57.325310 13.965758 10.503718 21.387985 -22.961767 -9.581736 -2.021920 5.690310 -0.063351 27.442101 -0.003100 13.110868 54.487228 1.523421 3.716950 11.856318 10.142587 0.123280 -25.479134 23.526098 4.324092 37.893593 -17.495800 -5.744586 -17.841164 -6.824829 3.502931 -48.225830 -15.482070 3.998738 49.564262 23.866779 3.788517 -10.043139 1.905514 -10.225245 
-0.827199 51.495869 2.522698 7.889790 -0.909819 -1.281905 39.234299 0.034077 -3.664584 7.809344 5.377490 -0.046305 -28.560701 7.337651 -3.795021 -8.399960 0.280137 0.345099 2.021920 -5.690310 -0.063351 -37.056850 -30.692650 10.176600 -57.594646 12.909767 10.332018 21.537125 -22.731125 -10.019793 -2.021920 5.690310 -0.063351 26.636463 13.741677 17.022291 51.394688 -1.370946 3.038242 5.802758 7.181912 -1.564929 -24.116636 18.027205 3.832493 34.711010 -17.178455 -4.660520 -15.429078 -3.128164 3.418121 -47.213001 -16.025560 3.792344 44.851818 23.098555 0.616918 -8.460546 1.880258 -10.773124 
